<?xml version="1.0" encoding="utf-8"?><svg xmlns="http://www.w3.org/2000/svg" xmlns:xlink="http://www.w3.org/1999/xlink"><symbol viewBox="0 0 24 24" fill="none" id="icon_tg" xmlns="http://www.w3.org/2000/svg">
    <path fill-rule="evenodd" clip-rule="evenodd" d="M10.8603 0.0291391C7.8487 0.342269 5.17729 1.68656 3.11914 3.9245C0.21885 7.0782 -0.752937 11.6475 0.601968 15.7602C1.21617 17.6246 2.18997 19.1851 3.61257 20.5847C5.49713 22.4388 7.78881 23.5506 10.5312 23.9412C11.0888 24.0206 12.9328 24.0193 13.5118 23.9391C16.2648 23.5578 18.6347 22.3816 20.5401 20.4509C22.436 18.5299 23.5468 16.2538 23.9411 13.4823C24.0196 12.9298 24.0196 11.0759 23.9411 10.5234C23.7161 8.94228 23.2546 7.51495 22.5591 6.24937C22.0101 5.25033 21.369 4.39469 20.5401 3.55477C18.6694 1.65923 16.3473 0.48782 13.6761 0.092075C13.1003 0.00673579 11.4338 -0.0304622 10.8603 0.0291391ZM17.6174 7.27894C17.8246 7.36559 17.9241 7.56464 17.9241 7.89256C17.9241 8.1931 15.9401 17.624 15.8335 17.8304C15.683 18.1215 15.3618 18.2319 15.0313 18.1063C14.9213 18.0644 13.8357 17.2822 12.2501 16.1023L11.8567 15.8096L11.0033 16.6246C10.3816 17.2184 10.1084 17.4488 9.99688 17.4733C9.91272 17.4918 9.83325 17.4964 9.82034 17.4834C9.80739 17.4704 9.84208 16.7868 9.89742 15.9642L9.99806 14.4686L10.3276 14.1633C10.5089 13.9954 11.78 12.8426 13.1524 11.6015C14.5247 10.3604 15.6476 9.31421 15.6476 9.27664C15.6476 9.22887 15.5976 9.20966 15.4814 9.21276C15.3471 9.21642 14.6505 9.63622 11.8381 11.4085C9.92558 12.6136 8.33654 13.5997 8.30688 13.5997C8.17732 13.5997 5.21794 12.6479 5.0775 12.561C4.77784 12.3757 4.84158 12.0946 5.23301 11.8757C5.33496 11.8186 6.08294 11.5156 6.89518 11.2021C7.70741 10.8888 9.23801 10.2982 10.2965 9.88984C11.355 9.48146 13.2455 8.75136 14.4976 8.26741C17.2425 7.20651 17.2167 7.216 17.3506 7.21389C17.4095 7.21295 17.5296 7.24226 17.6174 7.27894Z" fill="#27A7E7"/>
    <path d="M17.6174 7.27894C17.8246 7.36559 17.9241 7.56464 17.9241 7.89256C17.9241 8.1931 15.9401 17.624 15.8335 17.8304C15.683 18.1215 15.3618 18.2319 15.0313 18.1063C14.9213 18.0644 13.8357 17.2822 12.2501 16.1023L11.8567 15.8096L11.0033 16.6246C10.3816 17.2184 10.1084 17.4488 9.99688 17.4733C9.91272 17.4918 9.83325 17.4964 9.82034 17.4834C9.80739 17.4704 9.84208 16.7868 9.89742 15.9642L9.99806 14.4686L10.3276 14.1633C10.5089 13.9954 11.78 12.8426 13.1524 11.6015C14.5247 10.3604 15.6476 9.31421 15.6476 9.27664C15.6476 9.22887 15.5976 9.20966 15.4814 9.21276C15.3471 9.21642 14.6505 9.63622 11.8381 11.4085C9.92558 12.6136 8.33654 13.5997 8.30688 13.5997C8.17732 13.5997 5.21794 12.6479 5.0775 12.561C4.77784 12.3757 4.84158 12.0946 5.23301 11.8757C5.33496 11.8186 6.08294 11.5156 6.89518 11.2021L10.2965 9.88984C11.355 9.48146 13.2455 8.75136 14.4976 8.26741C17.2425 7.20651 17.2167 7.216 17.3506 7.21389C17.4095 7.21295 17.5296 7.24226 17.6174 7.27894Z" fill="white"/>
</symbol><symbol viewBox="0 0 24 24" fill="none" id="icon_viber" xmlns="http://www.w3.org/2000/svg">
    <path fill-rule="evenodd" clip-rule="evenodd" d="M10.9216 0.0480881C8.63311 0.257635 6.46715 1.11853 4.58812 2.56542C3.67418 3.26916 2.48728 4.59174 1.80138 5.67063C1.50296 6.14001 0.928067 7.31857 0.717748 7.89214C0.169924 9.38599 -0.0862774 11.1905 0.0258958 12.7658C0.202905 15.2522 1.03414 17.4319 2.56164 19.4153C3.29478 20.3671 4.65244 21.5735 5.74293 22.242C9.29259 24.4179 13.7656 24.5853 17.4662 22.6807C18.6633 22.0646 19.4886 21.457 20.4954 20.4504C21.7079 19.2381 22.5555 17.9475 23.1829 16.3587C23.8076 14.7763 24.0946 12.9123 23.9724 11.2303C23.7498 8.16849 22.5148 5.50011 20.3458 3.39479C18.8406 1.93382 17.0051 0.897346 15.0334 0.395081C13.637 0.0393628 12.2736 -0.0757074 10.9216 0.0480881ZM14.1587 4.61196C15.1573 4.74031 15.7672 4.86462 16.128 5.01342C17.1703 5.44316 18.2618 6.49422 18.7395 7.52817C19.1308 8.37485 19.3636 10.5614 19.2285 12.1207C19.1575 12.9403 18.9797 14.0026 18.8522 14.3696C18.4664 15.4793 17.2669 16.7016 16.1085 17.1654C15.3703 17.461 14.083 17.6287 12.2711 17.6654L10.923 17.6927L10.1183 18.5326C9.67575 18.9946 9.24967 19.4056 9.17155 19.4461C8.88716 19.5931 8.50147 19.4615 8.32526 19.1572C8.29195 19.0997 8.26188 18.7212 8.24747 18.1788L8.22402 17.2943L7.93784 17.1868C7.35619 16.9684 6.71575 16.5198 6.16995 15.9486C5.31619 15.0551 5.02035 14.3374 4.81439 12.6602C4.73543 12.0172 4.73496 10.1493 4.81359 9.51724C5.02312 7.83327 5.31638 7.12221 6.16995 6.22885C6.95675 5.40544 7.7559 4.95468 8.74519 4.77629C9.16362 4.70081 10.083 4.58564 10.734 4.5271C11.2415 4.48146 13.5977 4.53981 14.1587 4.61196ZM10.6167 5.86282C9.83366 5.92675 8.80501 6.0915 8.47726 6.20545C8.0341 6.3595 7.67769 6.60911 7.16843 7.12207C6.60339 7.69118 6.41587 8.02898 6.28132 8.71978C5.99674 10.181 5.97985 11.6839 6.23145 13.1636C6.35479 13.8888 6.42882 14.0998 6.70454 14.512C7.1302 15.1484 7.88173 15.7568 8.53999 15.9981L8.80909 16.0967L8.82148 17.4863C8.83367 18.8472 8.83588 18.8758 8.92914 18.8758C8.99192 18.8758 9.43728 18.4524 10.2367 17.6327L11.449 16.3896L12.3309 16.3589C13.8943 16.3046 15.2129 16.1231 15.7019 15.8949C16.5118 15.5169 17.3756 14.6269 17.6035 13.9356C17.8467 13.1977 18.0012 11.4412 17.9211 10.3262C17.8641 9.53404 17.7217 8.60034 17.6027 8.23946C17.4236 7.69625 16.6741 6.83212 16.0582 6.45895C15.6639 6.21999 15.3073 6.11181 14.5539 6.0027C13.2723 5.81703 11.8123 5.76515 10.6167 5.86282ZM12.7801 7.45128C13.8665 7.71177 14.7144 8.37836 15.1942 9.34935C15.4534 9.87409 15.5498 10.2542 15.596 10.9341L15.6269 11.3894L15.5029 11.4459C15.3987 11.4933 15.3646 11.4894 15.2896 11.4216C15.2201 11.3587 15.1929 11.2452 15.1667 10.9099C15.092 9.95243 14.8281 9.34114 14.2297 8.73929C13.6617 8.16802 13.0249 7.88417 12.1292 7.80283C11.7135 7.76506 11.5611 7.618 11.746 7.43308C11.8493 7.32983 12.3071 7.3379 12.7801 7.45128ZM9.9266 8.04774C10.1997 8.33647 10.814 9.23494 10.8579 9.40977C10.9195 9.65525 10.8305 9.84974 10.5195 10.1487C10.1651 10.4893 10.1528 10.5548 10.3542 11.0269C10.5474 11.4796 10.8834 11.961 11.2169 12.2628C11.5961 12.6058 12.2562 12.9417 12.5514 12.9417C12.7511 12.9417 12.7805 12.9243 13.0275 12.6596C13.3123 12.3545 13.5046 12.2653 13.7353 12.3315C13.9258 12.3861 14.8207 13.0054 15.128 13.2952C15.3207 13.477 15.3785 13.5635 15.3785 13.6699C15.3785 14.0569 14.7647 14.7808 14.308 14.9325C14.0844 15.0068 14.0623 15.0059 13.7766 14.9114C12.9429 14.6355 11.5128 13.7985 10.7574 13.1444C10.0937 12.5697 9.41438 11.6987 8.91629 10.7838C8.63288 10.2633 8.20042 9.22481 8.20159 9.06775C8.20525 8.57965 9.00135 7.78157 9.48452 7.78157C9.65515 7.78157 9.70103 7.8092 9.9266 8.04774ZM12.7766 8.36898C13.7082 8.60677 14.3923 9.28668 14.6041 10.1852C14.6968 10.5783 14.6955 10.944 14.6011 11.0385C14.4354 11.2041 14.2529 11.0632 14.2519 10.7688C14.251 10.5121 14.1356 10.0292 14.022 9.80649C13.7548 9.28293 13.161 8.87472 12.5083 8.76598C12.3194 8.7345 12.1279 8.68938 12.0828 8.66569C11.9886 8.61634 11.9738 8.43705 12.057 8.35388C12.134 8.2768 12.4409 8.28323 12.7766 8.36898ZM13.0665 9.39312C13.4837 9.60886 13.6913 9.93127 13.7262 10.4178C13.7486 10.7301 13.7479 10.7323 13.6174 10.765C13.5135 10.7911 13.4682 10.7758 13.4002 10.6919C13.3529 10.6335 13.3138 10.5301 13.3132 10.462C13.3116 10.2669 13.1515 9.96355 12.9891 9.84796C12.9075 9.78984 12.752 9.73101 12.6435 9.71722C12.5351 9.70343 12.4094 9.67317 12.3642 9.64995C12.2689 9.60098 12.2557 9.42267 12.3408 9.33458C12.4171 9.25558 12.8713 9.29222 13.0665 9.39312Z" fill="#6F3FAA"/>
    <path d="M9.9266 8.04774C10.1997 8.33647 10.814 9.23494 10.8579 9.40977C10.9195 9.65525 10.8305 9.84974 10.5195 10.1487C10.1651 10.4893 10.1528 10.5548 10.3542 11.0269C10.5474 11.4796 10.8834 11.961 11.2169 12.2628C11.5961 12.6058 12.2562 12.9417 12.5514 12.9417C12.7511 12.9417 12.7805 12.9243 13.0275 12.6596C13.3123 12.3545 13.5046 12.2653 13.7353 12.3315C13.9258 12.3861 14.8207 13.0054 15.128 13.2952C15.3207 13.477 15.3785 13.5635 15.3785 13.6699C15.3785 14.0569 14.7647 14.7808 14.308 14.9325C14.0844 15.0068 14.0623 15.0059 13.7766 14.9114C12.9429 14.6355 11.5128 13.7985 10.7574 13.1444C10.0937 12.5697 9.41438 11.6987 8.91629 10.7838C8.63288 10.2633 8.20042 9.22481 8.20159 9.06775C8.20525 8.57965 9.00135 7.78157 9.48452 7.78157C9.65515 7.78157 9.70103 7.8092 9.9266 8.04774Z" fill="white"/>
    <path d="M13.0665 9.39312C13.4837 9.60886 13.6913 9.93127 13.7262 10.4178C13.7486 10.7301 13.7479 10.7323 13.6174 10.765C13.5135 10.7911 13.4682 10.7758 13.4002 10.6919C13.3529 10.6335 13.3138 10.5301 13.3132 10.462C13.3116 10.2669 13.1515 9.96355 12.9891 9.84796C12.9075 9.78984 12.752 9.73101 12.6435 9.71722C12.5351 9.70343 12.4094 9.67317 12.3642 9.64995C12.2689 9.60098 12.2557 9.42267 12.3408 9.33458C12.4171 9.25558 12.8713 9.29222 13.0665 9.39312Z" fill="white"/>
    <path d="M12.7766 8.36898C13.7082 8.60677 14.3923 9.28668 14.6041 10.1852C14.6968 10.5783 14.6955 10.944 14.6011 11.0385C14.4354 11.2041 14.2529 11.0632 14.2519 10.7688C14.251 10.5121 14.1356 10.0292 14.022 9.80649C13.7548 9.28293 13.161 8.87472 12.5083 8.76598C12.3194 8.7345 12.1279 8.68938 12.0828 8.66569C11.9886 8.61634 11.9738 8.43705 12.057 8.35388C12.134 8.2768 12.4409 8.28323 12.7766 8.36898Z" fill="white"/>
    <path d="M12.7801 7.45128C13.8665 7.71177 14.7144 8.37836 15.1942 9.34935C15.4534 9.87409 15.5498 10.2542 15.596 10.9341L15.6269 11.3894L15.5029 11.4459C15.3987 11.4933 15.3646 11.4894 15.2896 11.4216C15.2201 11.3587 15.1929 11.2452 15.1667 10.9099C15.092 9.95243 14.8281 9.34114 14.2297 8.73929C13.6617 8.16802 13.0249 7.88417 12.1292 7.80283C11.7135 7.76506 11.5611 7.618 11.746 7.43308C11.8493 7.32983 12.3071 7.3379 12.7801 7.45128Z" fill="white"/>
    <path fill-rule="evenodd" clip-rule="evenodd" d="M14.1587 4.61196C15.1573 4.74031 15.7672 4.86462 16.128 5.01342C17.1703 5.44316 18.2618 6.49422 18.7395 7.52817C19.1308 8.37485 19.3636 10.5614 19.2285 12.1207C19.1575 12.9403 18.9797 14.0026 18.8522 14.3696C18.4664 15.4793 17.2669 16.7016 16.1085 17.1654C15.3703 17.461 14.083 17.6287 12.2711 17.6654L10.923 17.6927L10.1183 18.5326C9.67575 18.9946 9.24967 19.4056 9.17155 19.4461C8.88716 19.5931 8.50147 19.4615 8.32526 19.1572C8.29195 19.0997 8.26188 18.7212 8.24747 18.1788L8.22402 17.2943L7.93784 17.1868C7.35619 16.9684 6.71575 16.5198 6.16995 15.9486C5.31619 15.0551 5.02035 14.3374 4.81439 12.6602C4.73543 12.0172 4.73496 10.1493 4.81359 9.51724C5.02312 7.83327 5.31638 7.12221 6.16995 6.22885C6.95675 5.40544 7.7559 4.95468 8.74519 4.77629C9.16362 4.70081 10.083 4.58564 10.734 4.5271C11.2415 4.48146 13.5977 4.53981 14.1587 4.61196ZM8.47726 6.20545C8.80501 6.0915 9.83366 5.92675 10.6167 5.86282C11.8123 5.76515 13.2723 5.81703 14.5539 6.0027C15.3073 6.11181 15.6639 6.21999 16.0582 6.45895C16.6741 6.83212 17.4236 7.69625 17.6027 8.23946C17.7217 8.60034 17.8641 9.53404 17.9211 10.3262C18.0012 11.4412 17.8467 13.1977 17.6035 13.9356C17.3756 14.6269 16.5118 15.5169 15.7019 15.8949C15.2129 16.1231 13.8943 16.3046 12.3309 16.3589L11.449 16.3896L10.2367 17.6327C9.43728 18.4524 8.99192 18.8758 8.92914 18.8758C8.83588 18.8758 8.83367 18.8472 8.82148 17.4863L8.80909 16.0967L8.53999 15.9981C7.88173 15.7568 7.1302 15.1484 6.70454 14.512C6.42882 14.0998 6.35479 13.8888 6.23145 13.1636C5.97985 11.6839 5.99674 10.181 6.28132 8.71978C6.41587 8.02898 6.60339 7.69118 7.16843 7.12207C7.67769 6.60911 8.0341 6.3595 8.47726 6.20545Z" fill="white"/>
</symbol><symbol viewBox="0 0 24 24" fill="none" id="icon_whatsapp" xmlns="http://www.w3.org/2000/svg">
    <path d="M24 12C24 18.6274 18.6274 24 12 24C5.37258 24 0 18.6274 0 12C0 5.37258 5.37258 0 12 0C18.6274 0 24 5.37258 24 12Z" fill="white"/>
    <path fill-rule="evenodd" clip-rule="evenodd" d="M8.13306 17.7687L8.38963 17.9254C9.47733 18.5894 10.7295 18.9404 12.0108 18.9404C15.8487 18.9404 18.971 15.818 18.971 11.9801C18.971 8.14223 15.8487 5.01986 12.0108 5.01986C8.17293 5.01986 5.05056 8.14223 5.05056 11.9801C5.05056 13.3174 5.43062 14.616 6.14958 15.7355L6.32236 16.0046L5.64538 18.4091L8.13306 17.7687ZM9.11227 8.04917L9.65617 8.07882C9.76323 8.08466 9.85776 8.15081 9.89995 8.2495L10.6923 10.1033C10.7346 10.2023 10.7168 10.3168 10.6464 10.3983L9.95671 11.1961C9.90084 11.2609 9.89105 11.353 9.93044 11.4288C10.8388 13.1785 12.4942 13.8718 12.9883 14.0455C13.0726 14.0751 13.1659 14.0471 13.2204 13.9764L13.9421 13.0409C14.0223 12.9369 14.1638 12.9021 14.2832 12.9571L16.1214 13.8044C16.2411 13.8596 16.3066 13.9904 16.279 14.1193L16.1921 14.5249C16.0942 14.9826 15.8224 15.3874 15.4281 15.6396C14.9303 15.958 14.2851 16.1144 13.4648 15.8825C10.9195 15.1627 9.48007 13.4775 8.70766 12.4243C7.93526 11.371 7.63682 10.3178 7.82993 9.45763C7.95943 8.88076 8.38105 8.43808 8.64473 8.20911C8.77386 8.09693 8.94143 8.03985 9.11227 8.04917Z" fill="white"/>
    <path fill-rule="evenodd" clip-rule="evenodd" d="M8.13306 17.7687L8.38963 17.9254C9.47733 18.5894 10.7295 18.9404 12.0108 18.9404C15.8487 18.9404 18.971 15.818 18.971 11.9801C18.971 8.14223 15.8487 5.01986 12.0108 5.01986C8.17293 5.01986 5.05056 8.14223 5.05056 11.9801C5.05056 13.3174 5.43062 14.616 6.14958 15.7355L6.32236 16.0046L5.64538 18.4091L8.13306 17.7687ZM9.11227 8.04917L9.65617 8.07882C9.76323 8.08466 9.85776 8.15081 9.89995 8.2495L10.6923 10.1033C10.7346 10.2023 10.7168 10.3168 10.6464 10.3983L9.95671 11.1961C9.90084 11.2609 9.89105 11.353 9.93044 11.4288C10.8388 13.1785 12.4942 13.8718 12.9883 14.0455C13.0726 14.0751 13.1659 14.0471 13.2204 13.9764L13.9421 13.0409C14.0223 12.9369 14.1638 12.9021 14.2832 12.9571L16.1214 13.8044C16.2411 13.8596 16.3066 13.9904 16.279 14.1193L16.1921 14.5249C16.0942 14.9826 15.8224 15.3874 15.4281 15.6396C14.9303 15.958 14.2851 16.1144 13.4648 15.8825C10.9195 15.1627 9.48007 13.4775 8.70766 12.4243C7.93526 11.371 7.63682 10.3178 7.82993 9.45763C7.95943 8.88076 8.38105 8.43808 8.64473 8.20911C8.77386 8.09693 8.94143 8.03985 9.11227 8.04917Z" fill="#25D366"/>
    <path fill-rule="evenodd" clip-rule="evenodd" d="M24 12C24 18.6274 18.6274 24 12 24C5.37258 24 0 18.6274 0 12C0 5.37258 5.37258 0 12 0C18.6274 0 24 5.37258 24 12ZM4.78266 16.2267L3.60708 20.402L7.91293 19.2936C9.16046 19.9936 10.5707 20.3623 12.0108 20.3623C16.6328 20.3623 20.3929 16.6021 20.3929 11.9801C20.3929 7.35818 16.6328 3.59796 12.0108 3.59796C7.38889 3.59796 3.62867 7.35818 3.62867 11.9801C3.62867 13.4812 4.02669 14.9424 4.78266 16.2267Z" fill="white"/>
    <path fill-rule="evenodd" clip-rule="evenodd" d="M24 12C24 18.6274 18.6274 24 12 24C5.37258 24 0 18.6274 0 12C0 5.37258 5.37258 0 12 0C18.6274 0 24 5.37258 24 12ZM4.78266 16.2267L3.60708 20.402L7.91293 19.2936C9.16046 19.9936 10.5707 20.3623 12.0108 20.3623C16.6328 20.3623 20.3929 16.6021 20.3929 11.9801C20.3929 7.35818 16.6328 3.59796 12.0108 3.59796C7.38889 3.59796 3.62867 7.35818 3.62867 11.9801C3.62867 13.4812 4.02669 14.9424 4.78266 16.2267Z" fill="#25D366"/>
</symbol><symbol viewBox="0 0 13 13" id="phone" xmlns="http://www.w3.org/2000/svg">
    <path d="M12.0144 12.0038L12.508 11.4358C12.8222 11.1211 12.9986 10.6949 12.9986 10.2506C12.9986 9.80626 12.8222 9.38007 12.508 9.0654C12.4912 9.04861 11.186 8.0462 11.186 8.0462C10.8728 7.74853 10.4567 7.58277 10.0243 7.58338C9.59179 7.58398 9.17618 7.7509 8.86378 8.04945L7.82986 8.91918C6.9859 8.57047 6.21925 8.05875 5.57395 7.41341C4.92865 6.76807 4.4174 6.00182 4.06957 5.15866L4.9375 4.12972C5.23678 3.81788 5.40417 3.40289 5.40488 2.97102C5.40558 2.53915 5.23955 2.12362 4.94129 1.81081C4.94129 1.81081 3.93613 0.509467 3.91931 0.492679C3.60981 0.181694 3.19019 0.00475571 2.75109 9.44725e-05C2.312 -0.00456676 1.8887 0.163423 1.57265 0.467768L0.948829 1.00932C-2.73661 5.2778 5.1995 13.1395 9.61617 12.9981C10.0622 13.0007 10.5042 12.914 10.9161 12.7433C11.328 12.5725 11.7014 12.3211 12.0144 12.0038Z"/>
</symbol><symbol viewBox="0 0 15 16" id="star" xmlns="http://www.w3.org/2000/svg">
    <path d="M14.9609 5.93403C14.8627 5.6303 14.5933 5.41457 14.2746 5.38584L9.94517 4.99273L8.2332 0.985707C8.10697 0.692044 7.81949 0.501953 7.50008 0.501953C7.18066 0.501953 6.89318 0.692044 6.76695 0.986394L5.05498 4.99273L0.724886 5.38584C0.406732 5.41526 0.138017 5.6303 0.0392524 5.93403C-0.0595127 6.23776 0.0316991 6.57091 0.272375 6.78092L3.5449 9.65094L2.57991 13.9017C2.50929 14.2143 2.6306 14.5373 2.88993 14.7248C3.02933 14.8255 3.19241 14.8768 3.35687 14.8768C3.49866 14.8768 3.63931 14.8386 3.76554 14.763L7.50008 12.531L11.2332 14.763C11.5064 14.9274 11.8508 14.9124 12.1095 14.7248C12.369 14.5368 12.4902 14.2136 12.4196 13.9017L11.4546 9.65094L14.7271 6.78149C14.9678 6.57091 15.0597 6.23834 14.9609 5.93403Z"/>
</symbol></svg>